<svg xmlns="http://www.w3.org/2000/svg" role="img" aria-labelledby="title" viewBox="0 0 881 189" width="881" height="189">
  <title id="title">Ivy Research logo</title>
<g fill="#000000" stroke="#000000" stroke-linecap="round" stroke-width="7">
    <line x1="58" y1="32" x2="80" y2="91" />
    <line x1="80" y1="91" x2="58" y2="150" />
    <circle cx="58" cy="32" r="18" stroke="none" />
    <circle cx="80" cy="91" r="18" stroke="none" />
    <circle cx="58" cy="150" r="18" stroke="none" />
  </g>
  <path fill="#000000" transform="translate(122 150) scale(0.135 -0.135)" d="M0 480L131 480L257 130L259 130L386 480L513 480L322 0L194 0Z" />
  <path fill="#000000" transform="translate(191.26 150) scale(0.135 -0.135)" d="M0 480L133 480L267 131L269 131L388 480L513 480L286 -103Q273 -136 258 -161.5Q243 -187 222 -204.5Q201 -222 172.5 -231Q144 -240 104 -240Q89 -240 73.5 -238.5Q58 -237 42 -233L52 -129Q64 -133 75.5 -134.5Q87 -136 97 -136Q116 -136 129 -131.5Q142 -127 151 -117.5Q160 -108 167 -94Q174 -80 182 -61L206 0Z" />
  <path fill="#000000" transform="translate(260.51 150) scale(0.135 -0.135)" d="" />
  <path fill="#000000" transform="translate(294.26 150) scale(0.135 -0.135)" d="M78 708L324 708Q374 708 421 697.5Q468 687 504.5 663Q541 639 563 600Q585 561 585 505Q585 428 541.5 379.5Q498 331 423 314L612 0L460 0L296 300L204 300L204 0L78 0ZM307 403Q334 403 361 407Q388 411 409.5 422Q431 433 445 453.5Q459 474 459 506Q459 535 446 553.5Q433 572 413 583Q393 594 367.5 598Q342 602 318 602L204 602L204 403Z" />
  <path fill="#000000" transform="translate(377.56 150) scale(0.135 -0.135)" d="M410 288Q410 311 403.5 332Q397 353 383 369Q369 385 347.5 394.5Q326 404 297 404Q243 404 205.5 371.5Q168 339 164 288ZM530 234Q530 226 530 218Q530 210 529 202L164 202Q166 176 177.5 154.5Q189 133 208 117.5Q227 102 251 93Q275 84 301 84Q346 84 377 100.5Q408 117 428 146L508 82Q437 -14 302 -14Q246 -14 199 3.5Q152 21 117.5 53Q83 85 63.5 131.5Q44 178 44 237Q44 295 63.5 342.5Q83 390 117 423.5Q151 457 197.5 475.5Q244 494 298 494Q348 494 390.5 477.5Q433 461 464 428.5Q495 396 512.5 347.5Q530 299 530 234Z" />
  <path fill="#000000" transform="translate(455.05 150) scale(0.135 -0.135)" d="M335 352Q319 373 291 388.5Q263 404 230 404Q201 404 177 392Q153 380 153 352Q153 324 179.5 312.5Q206 301 257 289Q284 283 311.5 273Q339 263 361.5 246.5Q384 230 398 205.5Q412 181 412 146Q412 102 395.5 71.5Q379 41 351.5 22Q324 3 287.5 -5.5Q251 -14 212 -14Q156 -14 103 6.5Q50 27 15 65L94 139Q114 113 146 96Q178 79 217 79Q230 79 243.5 82Q257 85 268.5 91.5Q280 98 287 109Q294 120 294 136Q294 166 266.5 179Q239 192 184 205Q157 211 131.5 220.5Q106 230 86 245.5Q66 261 54 284Q42 307 42 341Q42 381 58.5 410Q75 439 102 457.5Q129 476 163 485Q197 494 233 494Q285 494 334.5 476Q384 458 413 421Z" />
  <path fill="#000000" transform="translate(514.99 150) scale(0.135 -0.135)" d="M410 288Q410 311 403.5 332Q397 353 383 369Q369 385 347.5 394.5Q326 404 297 404Q243 404 205.5 371.5Q168 339 164 288ZM530 234Q530 226 530 218Q530 210 529 202L164 202Q166 176 177.5 154.5Q189 133 208 117.5Q227 102 251 93Q275 84 301 84Q346 84 377 100.5Q408 117 428 146L508 82Q437 -14 302 -14Q246 -14 199 3.5Q152 21 117.5 53Q83 85 63.5 131.5Q44 178 44 237Q44 295 63.5 342.5Q83 390 117 423.5Q151 457 197.5 475.5Q244 494 298 494Q348 494 390.5 477.5Q433 461 464 428.5Q495 396 512.5 347.5Q530 299 530 234Z" />
  <path fill="#000000" transform="translate(591.67 150) scale(0.135 -0.135)" d="M370 61L367 61Q349 29 309 8.5Q269 -12 218 -12Q189 -12 157.5 -4.5Q126 3 99.5 20.5Q73 38 55.5 66.5Q38 95 38 137Q38 191 68.5 223Q99 255 147 272Q195 289 253.5 294.5Q312 300 368 300L368 312Q368 357 335.5 378.5Q303 400 258 400Q220 400 185 384Q150 368 127 345L65 418Q106 456 159.5 475Q213 494 268 494Q332 494 373.5 476Q415 458 439 429Q463 400 472.5 364Q482 328 482 292L482 0L370 0ZM368 219L341 219Q312 219 280 216.5Q248 214 221 205.5Q194 197 176 181.5Q158 166 158 139Q158 122 165.5 110.5Q173 99 185 92Q197 85 212 82Q227 79 242 79Q304 79 336 112Q368 145 368 202Z" />
  <path fill="#000000" transform="translate(665.92 150) scale(0.135 -0.135)" d="M72 480L187 480L187 400L189 400Q209 442 245 468Q281 494 329 494Q336 494 344 493.5Q352 493 358 491L358 381Q346 384 337.5 385Q329 386 321 386Q280 386 255 371Q230 356 216 335Q202 314 197 292Q192 270 192 257L192 0L72 0Z" />
  <path fill="#000000" transform="translate(712.63 150) scale(0.135 -0.135)" d="M400 347Q386 367 358 380.5Q330 394 301 394Q268 394 243 380.5Q218 367 201.5 345Q185 323 177 295.5Q169 268 169 240Q169 212 177.5 184.5Q186 157 203 135Q220 113 245.5 99.5Q271 86 305 86Q333 86 361 97Q389 108 406 129L481 53Q451 21 404.5 3.5Q358 -14 304 -14Q251 -14 203.5 3Q156 20 120.5 53Q85 86 64.5 133Q44 180 44 240Q44 298 64.5 345Q85 392 120 425Q155 458 201.5 476Q248 494 301 494Q354 494 403.5 474Q453 454 482 419Z" />
  <path fill="#000000" transform="translate(778.51 150) scale(0.135 -0.135)" d="M339 494Q386 494 419.5 477.5Q453 461 474.5 434Q496 407 506 372Q516 337 516 300L516 0L396 0L396 264Q396 285 393 307.5Q390 330 380.5 348.5Q371 367 353.5 379Q336 391 307 391Q278 391 257 380Q236 369 222 350.5Q208 332 201 309Q194 286 194 262L194 0L74 0L74 756L194 756L194 413L196 413Q203 428 216.5 442.5Q230 457 248 468.5Q266 480 289 487Q312 494 339 494Z" />
</svg>
